<svg width="640" height="360" viewBox="0 0 640 360" fill="none" xmlns="http://www.w3.org/2000/svg">
<rect width="640" height="360" rx="80" fill="#2F80ED"/>
<path d="M123.364 110.364V250H98.6818V110.364H123.364ZM195.108 252.045C184.608 252.045 175.54 249.864 167.903 245.5C160.313 241.091 154.472 234.864 150.381 226.818C146.29 218.727 144.244 209.205 144.244 198.25C144.244 187.477 146.29 178.023 150.381 169.886C154.517 161.705 160.29 155.341 167.699 150.795C175.108 146.205 183.812 143.909 193.812 143.909C200.267 143.909 206.358 144.955 212.085 147.045C217.858 149.091 222.949 152.273 227.358 156.591C231.813 160.909 235.313 166.409 237.858 173.091C240.403 179.727 241.676 187.636 241.676 196.818V204.386H155.835V187.75H218.017C217.972 183.023 216.949 178.818 214.949 175.136C212.949 171.409 210.153 168.477 206.562 166.341C203.017 164.205 198.881 163.136 194.153 163.136C189.108 163.136 184.676 164.364 180.858 166.818C177.04 169.227 174.063 172.409 171.926 176.364C169.835 180.273 168.767 184.568 168.722 189.25V203.773C168.722 209.864 169.835 215.091 172.062 219.455C174.29 223.773 177.403 227.091 181.403 229.409C185.403 231.682 190.085 232.818 195.449 232.818C199.04 232.818 202.29 232.318 205.199 231.318C208.108 230.273 210.631 228.75 212.767 226.75C214.903 224.75 216.517 222.273 217.608 219.318L240.653 221.909C239.199 228 236.426 233.318 232.335 237.864C228.29 242.364 223.108 245.864 216.79 248.364C210.472 250.818 203.244 252.045 195.108 252.045ZM292.693 252.114C286.057 252.114 280.08 250.932 274.761 248.568C269.489 246.159 265.307 242.614 262.216 237.932C259.17 233.25 257.648 227.477 257.648 220.614C257.648 214.705 258.739 209.818 260.92 205.955C263.102 202.091 266.08 199 269.852 196.682C273.625 194.364 277.875 192.614 282.602 191.432C287.375 190.205 292.307 189.318 297.398 188.773C303.534 188.136 308.511 187.568 312.33 187.068C316.148 186.523 318.92 185.705 320.648 184.614C322.42 183.477 323.307 181.727 323.307 179.364V178.955C323.307 173.818 321.784 169.841 318.739 167.023C315.693 164.205 311.307 162.795 305.58 162.795C299.534 162.795 294.739 164.114 291.193 166.75C287.693 169.386 285.33 172.5 284.102 176.091L261.057 172.818C262.875 166.455 265.875 161.136 270.057 156.864C274.239 152.545 279.352 149.318 285.398 147.182C291.443 145 298.125 143.909 305.443 143.909C310.489 143.909 315.511 144.5 320.511 145.682C325.511 146.864 330.08 148.818 334.216 151.545C338.352 154.227 341.67 157.886 344.17 162.523C346.716 167.159 347.989 172.955 347.989 179.909V250H324.261V235.614H323.443C321.943 238.523 319.83 241.25 317.102 243.795C314.42 246.295 311.034 248.318 306.943 249.864C302.898 251.364 298.148 252.114 292.693 252.114ZM299.102 233.977C304.057 233.977 308.352 233 311.989 231.045C315.625 229.045 318.42 226.409 320.375 223.136C322.375 219.864 323.375 216.295 323.375 212.432V200.091C322.602 200.727 321.284 201.318 319.42 201.864C317.602 202.409 315.557 202.886 313.284 203.295C311.011 203.705 308.761 204.068 306.534 204.386C304.307 204.705 302.375 204.977 300.739 205.205C297.057 205.705 293.761 206.523 290.852 207.659C287.943 208.795 285.648 210.386 283.966 212.432C282.284 214.432 281.443 217.023 281.443 220.205C281.443 224.75 283.102 228.182 286.42 230.5C289.739 232.818 293.966 233.977 299.102 233.977ZM372.807 250V145.273H396.739V162.727H397.83C399.739 156.682 403.011 152.023 407.648 148.75C412.33 145.432 417.67 143.773 423.67 143.773C425.034 143.773 426.557 143.841 428.239 143.977C429.966 144.068 431.398 144.227 432.534 144.455V167.159C431.489 166.795 429.83 166.477 427.557 166.205C425.33 165.886 423.17 165.727 421.08 165.727C416.58 165.727 412.534 166.705 408.943 168.659C405.398 170.568 402.602 173.227 400.557 176.636C398.511 180.045 397.489 183.977 397.489 188.432V250H372.807ZM473.614 188.636V250H448.932V145.273H472.523V163.068H473.75C476.159 157.205 480 152.545 485.273 149.091C490.591 145.636 497.159 143.909 504.977 143.909C512.205 143.909 518.5 145.455 523.864 148.545C529.273 151.636 533.455 156.114 536.409 161.977C539.409 167.841 540.886 174.955 540.841 183.318V250H516.159V187.136C516.159 180.136 514.341 174.659 510.705 170.705C507.114 166.75 502.136 164.773 495.773 164.773C491.455 164.773 487.614 165.727 484.25 167.636C480.932 169.5 478.318 172.205 476.409 175.75C474.545 179.295 473.614 183.591 473.614 188.636Z" fill="white"/>
</svg>
